<svg width="40" height="60" viewBox="0 0 40 60" fill="none" xmlns="http://www.w3.org/2000/svg">
<g filter="url(#filter0_i_640_940)">
<path d="M30.0002 54.375H24.4445V40.6418C33.9544 38.7797 40.8406 31.2773 39.917 22.5762L37.7017 1.70508C37.5989 0.739453 36.653 0 35.5197 0H4.48032C3.34836 0 2.40112 0.739453 2.29973 1.70508L0.0830291 22.5773C-0.840596 31.2785 6.04562 38.7809 15.5555 40.643V54.375H9.99985C6.93175 54.375 4.44421 56.4738 4.44421 59.0625C4.44421 59.5805 4.94144 60 5.55533 60H34.4447C35.0586 60 35.5558 59.5805 35.5558 59.0625C35.5558 56.4738 33.0683 54.375 30.0002 54.375Z" fill="#FDB3AC"/>
</g>
<defs>
<filter id="filter0_i_640_940" x="0" y="0" width="40" height="64" filterUnits="userSpaceOnUse" color-interpolation-filters="sRGB">
<feFlood flood-opacity="0" result="BackgroundImageFix"/>
<feBlend mode="normal" in="SourceGraphic" in2="BackgroundImageFix" result="shape"/>
<feColorMatrix in="SourceAlpha" type="matrix" values="0 0 0 0 0 0 0 0 0 0 0 0 0 0 0 0 0 0 127 0" result="hardAlpha"/>
<feOffset dy="4"/>
<feGaussianBlur stdDeviation="2"/>
<feComposite in2="hardAlpha" operator="arithmetic" k2="-1" k3="1"/>
<feColorMatrix type="matrix" values="0 0 0 0 0 0 0 0 0 0 0 0 0 0 0 0 0 0 0.25 0"/>
<feBlend mode="normal" in2="shape" result="effect1_innerShadow_640_940"/>
</filter>
</defs>
</svg>
