<svg width="40" height="60" viewBox="0 0 40 60" fill="none" xmlns="http://www.w3.org/2000/svg">
<g filter="url(#filter0_i_640_941)">
<path d="M23.9445 54.375V54.875H24.4445H30.0002C32.8751 54.875 35.0558 56.8262 35.0558 59.0625C35.0558 59.2281 34.8654 59.5 34.4447 59.5H5.55533C5.13459 59.5 4.94421 59.2281 4.94421 59.0625C4.94421 56.8262 7.1249 54.875 9.99985 54.875H15.5555H16.0555V54.375V40.643V40.2314L15.6516 40.1523C6.31947 38.325 -0.30849 31.0027 0.580233 22.6301C0.580234 22.6301 0.580235 22.6301 0.580236 22.6301L2.79693 1.75788L2.797 1.75729C2.86539 1.10593 3.53938 0.5 4.48032 0.5H35.5197C36.4616 0.5 37.135 1.1057 37.2045 1.758L39.4198 22.6289C40.3085 31.0015 33.6805 38.3238 24.3484 40.1511L23.9445 40.2302V40.6418V54.375Z" stroke="black"/>
<path d="M18.6669 9.02344C18.6669 11.0657 16.6729 12.8594 14.0279 12.8594C11.3829 12.8594 9.38892 11.0657 9.38892 9.02344C9.38892 6.98116 11.3829 5.1875 14.0279 5.1875C16.6729 5.1875 18.6669 6.98116 18.6669 9.02344Z" stroke="#1C1B1B"/>
<path d="M27.9728 30.8203C27.9728 32.8626 25.9788 34.6562 23.3338 34.6562C20.6888 34.6562 18.6948 32.8626 18.6948 30.8203C18.6948 28.778 20.6888 26.9844 23.3338 26.9844C25.9788 26.9844 27.9728 28.778 27.9728 30.8203Z" stroke="#1C1B1B"/>
<path d="M27.9727 17.7539C27.9727 19.1813 26.5695 20.4766 24.6532 20.4766C22.7369 20.4766 21.3337 19.1813 21.3337 17.7539C21.3337 16.3265 22.7369 15.0312 24.6532 15.0312C26.5695 15.0312 27.9727 16.3265 27.9727 17.7539Z" stroke="#1C1B1B"/>
<path d="M13.8057 23.2617C13.8057 24.1714 12.8999 25.0469 11.5973 25.0469C10.2947 25.0469 9.38892 24.1714 9.38892 23.2617C9.38892 22.3521 10.2947 21.4766 11.5973 21.4766C12.8999 21.4766 13.8057 22.3521 13.8057 23.2617Z" stroke="#1C1B1B"/>
<path d="M30.7505 6.73828C30.7505 7.64794 29.8448 8.52344 28.5421 8.52344C27.2395 8.52344 26.3337 7.64794 26.3337 6.73828C26.3337 5.82862 27.2395 4.95312 28.5421 4.95312C29.8448 4.95312 30.7505 5.82862 30.7505 6.73828Z" stroke="#1C1B1B"/>
</g>
<defs>
<filter id="filter0_i_640_941" x="0" y="0" width="40" height="64" filterUnits="userSpaceOnUse" color-interpolation-filters="sRGB">
<feFlood flood-opacity="0" result="BackgroundImageFix"/>
<feBlend mode="normal" in="SourceGraphic" in2="BackgroundImageFix" result="shape"/>
<feColorMatrix in="SourceAlpha" type="matrix" values="0 0 0 0 0 0 0 0 0 0 0 0 0 0 0 0 0 0 127 0" result="hardAlpha"/>
<feOffset dy="4"/>
<feGaussianBlur stdDeviation="2"/>
<feComposite in2="hardAlpha" operator="arithmetic" k2="-1" k3="1"/>
<feColorMatrix type="matrix" values="0 0 0 0 0 0 0 0 0 0 0 0 0 0 0 0 0 0 0.25 0"/>
<feBlend mode="normal" in2="shape" result="effect1_innerShadow_640_941"/>
</filter>
</defs>
</svg>
